<mxfile host="app.diagrams.net" modified="2022-09-15T10:07:32.654Z" agent="5.0 (Windows NT 10.0; Win64; x64) AppleWebKit/537.36 (KHTML, like Gecko) Chrome/105.0.0.0 Safari/537.36" etag="5sZ6muK6BwMFAdzhL8PU" version="20.3.0" type="github">
  <diagram id="8Bpq0XL_chIRrS-9Ywte" name="Page-1">
    <mxGraphModel dx="1422" dy="794" grid="1" gridSize="10" guides="1" tooltips="1" connect="1" arrows="1" fold="1" page="1" pageScale="1" pageWidth="827" pageHeight="1169" math="0" shadow="0">
      <root>
        <mxCell id="0" />
        <mxCell id="1" parent="0" />
        <mxCell id="xmftSQcYOvlVYr_3nUFi-1" value="Client" style="shape=umlActor;verticalLabelPosition=bottom;verticalAlign=top;html=1;outlineConnect=0;" vertex="1" parent="1">
          <mxGeometry x="30" y="80" width="70" height="140" as="geometry" />
        </mxCell>
        <mxCell id="xmftSQcYOvlVYr_3nUFi-2" value="Technicien" style="shape=umlActor;verticalLabelPosition=bottom;verticalAlign=top;html=1;outlineConnect=0;" vertex="1" parent="1">
          <mxGeometry x="30" y="380" width="70" height="150" as="geometry" />
        </mxCell>
        <mxCell id="xmftSQcYOvlVYr_3nUFi-3" value="" style="endArrow=classic;html=1;rounded=0;" edge="1" parent="1">
          <mxGeometry width="50" height="50" relative="1" as="geometry">
            <mxPoint x="65" y="350" as="sourcePoint" />
            <mxPoint x="64.5" y="260" as="targetPoint" />
            <Array as="points">
              <mxPoint x="64.5" y="310" />
            </Array>
          </mxGeometry>
        </mxCell>
        <mxCell id="xmftSQcYOvlVYr_3nUFi-4" value="Mise a jour Logiciel" style="ellipse;whiteSpace=wrap;html=1;" vertex="1" parent="1">
          <mxGeometry x="320" y="440" width="120" height="80" as="geometry" />
        </mxCell>
        <mxCell id="xmftSQcYOvlVYr_3nUFi-5" value="Retirer de l&#39;argent" style="ellipse;whiteSpace=wrap;html=1;" vertex="1" parent="1">
          <mxGeometry x="250" y="100" width="120" height="80" as="geometry" />
        </mxCell>
        <mxCell id="xmftSQcYOvlVYr_3nUFi-6" value="Authentification" style="ellipse;whiteSpace=wrap;html=1;" vertex="1" parent="1">
          <mxGeometry x="250" y="260" width="120" height="80" as="geometry" />
        </mxCell>
        <mxCell id="xmftSQcYOvlVYr_3nUFi-7" value="DÃ©poser de l&#39;argent" style="ellipse;whiteSpace=wrap;html=1;" vertex="1" parent="1">
          <mxGeometry x="400" y="340" width="120" height="80" as="geometry" />
        </mxCell>
        <mxCell id="xmftSQcYOvlVYr_3nUFi-8" value="Consulter son solde" style="ellipse;whiteSpace=wrap;html=1;" vertex="1" parent="1">
          <mxGeometry x="414" y="160" width="120" height="80" as="geometry" />
        </mxCell>
        <mxCell id="xmftSQcYOvlVYr_3nUFi-9" value="" style="shape=datastore;whiteSpace=wrap;html=1;" vertex="1" parent="1">
          <mxGeometry x="670" y="110" width="60" height="60" as="geometry" />
        </mxCell>
        <mxCell id="xmftSQcYOvlVYr_3nUFi-10" value="" style="shape=process;whiteSpace=wrap;html=1;backgroundOutline=1;" vertex="1" parent="1">
          <mxGeometry x="650" y="310" width="120" height="60" as="geometry" />
        </mxCell>
        <mxCell id="xmftSQcYOvlVYr_3nUFi-13" value="" style="rounded=0;whiteSpace=wrap;html=1;rotation=90;fillColor=none;" vertex="1" parent="1">
          <mxGeometry x="130" y="120" width="550" height="430" as="geometry" />
        </mxCell>
        <mxCell id="xmftSQcYOvlVYr_3nUFi-14" value="GAB" style="rounded=0;whiteSpace=wrap;html=1;fillColor=none;" vertex="1" parent="1">
          <mxGeometry x="550" y="60" width="70" height="30" as="geometry" />
        </mxCell>
        <mxCell id="xmftSQcYOvlVYr_3nUFi-15" value="" style="endArrow=classic;html=1;rounded=0;entryX=0.017;entryY=0.3;entryDx=0;entryDy=0;entryPerimeter=0;" edge="1" parent="1" target="xmftSQcYOvlVYr_3nUFi-6">
          <mxGeometry width="50" height="50" relative="1" as="geometry">
            <mxPoint x="130" y="190" as="sourcePoint" />
            <mxPoint x="180" y="140" as="targetPoint" />
          </mxGeometry>
        </mxCell>
        <mxCell id="xmftSQcYOvlVYr_3nUFi-16" value="" style="endArrow=classic;html=1;rounded=0;entryX=-0.008;entryY=0.663;entryDx=0;entryDy=0;entryPerimeter=0;" edge="1" parent="1" target="xmftSQcYOvlVYr_3nUFi-4">
          <mxGeometry width="50" height="50" relative="1" as="geometry">
            <mxPoint x="120" y="510" as="sourcePoint" />
            <mxPoint x="250" y="540" as="targetPoint" />
          </mxGeometry>
        </mxCell>
        <mxCell id="xmftSQcYOvlVYr_3nUFi-22" value="&lt;span style=&quot;color: rgb(0, 0, 0); font-family: Helvetica; font-size: 11px; font-style: normal; font-variant-ligatures: normal; font-variant-caps: normal; font-weight: 400; letter-spacing: normal; orphans: 2; text-align: center; text-indent: 0px; text-transform: none; widows: 2; word-spacing: 0px; -webkit-text-stroke-width: 0px; background-color: rgb(255, 255, 255); text-decoration-thickness: initial; text-decoration-style: initial; text-decoration-color: initial; float: none; display: inline !important;&quot;&gt;&amp;lt;include&amp;gt;&lt;/span&gt;" style="text;whiteSpace=wrap;html=1;" vertex="1" parent="1">
          <mxGeometry x="250" y="200" width="50" height="20" as="geometry" />
        </mxCell>
        <mxCell id="xmftSQcYOvlVYr_3nUFi-27" value="&lt;span style=&quot;font-size: 11px; text-align: center; background-color: rgb(255, 255, 255);&quot;&gt;&amp;lt;extend&amp;gt;&lt;/span&gt;" style="text;whiteSpace=wrap;html=1;" vertex="1" parent="1">
          <mxGeometry x="400" y="250" width="50" height="20" as="geometry" />
        </mxCell>
        <mxCell id="xmftSQcYOvlVYr_3nUFi-29" value="&lt;span style=&quot;color: rgb(0, 0, 0); font-family: Helvetica; font-size: 11px; font-style: normal; font-variant-ligatures: normal; font-variant-caps: normal; font-weight: 400; letter-spacing: normal; orphans: 2; text-align: center; text-indent: 0px; text-transform: none; widows: 2; word-spacing: 0px; -webkit-text-stroke-width: 0px; background-color: rgb(255, 255, 255); text-decoration-thickness: initial; text-decoration-style: initial; text-decoration-color: initial; float: none; display: inline !important;&quot;&gt;&amp;lt;extend&amp;gt;&lt;/span&gt;" style="text;whiteSpace=wrap;html=1;" vertex="1" parent="1">
          <mxGeometry x="320" y="370" width="50" height="20" as="geometry" />
        </mxCell>
        <mxCell id="xmftSQcYOvlVYr_3nUFi-33" value="BDD COMPTE" style="rounded=0;whiteSpace=wrap;html=1;fillColor=none;strokeColor=none;" vertex="1" parent="1">
          <mxGeometry x="670" y="195" width="70" height="30" as="geometry" />
        </mxCell>
        <mxCell id="xmftSQcYOvlVYr_3nUFi-34" value="IMPRESSION DES RECUS" style="rounded=0;whiteSpace=wrap;html=1;shadow=0;strokeColor=none;" vertex="1" parent="1">
          <mxGeometry x="675" y="420" width="70" height="30" as="geometry" />
        </mxCell>
        <mxCell id="xmftSQcYOvlVYr_3nUFi-35" value="" style="endArrow=classic;html=1;rounded=0;dashed=1;entryX=0.5;entryY=0;entryDx=0;entryDy=0;" edge="1" parent="1" target="xmftSQcYOvlVYr_3nUFi-6">
          <mxGeometry width="50" height="50" relative="1" as="geometry">
            <mxPoint x="310" y="190" as="sourcePoint" />
            <mxPoint x="310" y="250" as="targetPoint" />
            <Array as="points">
              <mxPoint x="310" y="230" />
            </Array>
          </mxGeometry>
        </mxCell>
        <mxCell id="xmftSQcYOvlVYr_3nUFi-37" value="" style="endArrow=classic;html=1;rounded=0;dashed=1;" edge="1" parent="1" target="xmftSQcYOvlVYr_3nUFi-6">
          <mxGeometry width="50" height="50" relative="1" as="geometry">
            <mxPoint x="390" y="380" as="sourcePoint" />
            <mxPoint x="340" y="350" as="targetPoint" />
          </mxGeometry>
        </mxCell>
        <mxCell id="xmftSQcYOvlVYr_3nUFi-38" value="" style="endArrow=classic;html=1;rounded=0;dashed=1;" edge="1" parent="1" target="xmftSQcYOvlVYr_3nUFi-6">
          <mxGeometry width="50" height="50" relative="1" as="geometry">
            <mxPoint x="440" y="230" as="sourcePoint" />
            <mxPoint x="360" y="250" as="targetPoint" />
          </mxGeometry>
        </mxCell>
      </root>
    </mxGraphModel>
  </diagram>
</mxfile>
